<svg height='300px' width='300px'  fill="#FFF" xmlns="http://www.w3.org/2000/svg" xmlns:xlink="http://www.w3.org/1999/xlink" version="1.1" x="0px" y="0px" viewBox="0 0 100 100" enable-background="new 0 0 100 100" xml:space="preserve"><path d="M86.2,23.6H11.8c-4.3,0-7.8,3.5-7.8,7.8v37.2c0,4.3,3.5,7.8,7.8,7.8h74.4c4.3,0,7.8-3.5,7.8-7.8V31.4  C94,27.1,90.5,23.6,86.2,23.6z M86.2,28.6c1.5,0,2.8,1.3,2.8,2.8v8.1H62c-0.4-4.3-1.8-8.1-3.9-10.9H86.2z M89,44.5v10.9H61.5  c-0.9-3.6-0.9-7.4,0-10.9H89z M11.8,28.6h28.1c-2.1,2.8-3.5,6.6-3.9,10.9H9v-8.1C9,29.9,10.3,28.6,11.8,28.6z M36.5,55.5H9V44.5  h27.5C37.4,48.1,37.4,51.9,36.5,55.5z M57.1,58.4C57,65.5,53.3,71.4,49,71.4c-2.7,0-4.5-2.2-5.4-3.6c-0.4-0.6-0.8-1.3-1.1-2  c-0.6-1.3-2-1.8-3.3-1.3c-1.3,0.6-1.8,2-1.3,3.3c0.4,1,0.9,1.9,1.5,2.7c0.2,0.3,0.4,0.5,0.6,0.8H11.8c-1.5,0-2.8-1.3-2.8-2.8v-8.1  h29.4c1.1,0,2-0.7,2.4-1.7c1.8-5.3,1.9-11.2,0.3-16.5v-2.7h0c0.7-6.1,4.1-10.9,8-10.9c4.3,0,8,5.9,8.1,13.1  C55.4,47.1,55.4,52.9,57.1,58.4z M86.2,71.4H58.1c2.1-2.8,3.5-6.6,3.9-10.9h27v8.1C89,70.1,87.7,71.4,86.2,71.4z"></path><circle cx="49" cy="65.9" r="2.7"></circle></svg>
