<svg height='300px' width='300px'  fill="#fff" xmlns="http://www.w3.org/2000/svg" xmlns:xlink="http://www.w3.org/1999/xlink" version="1.1" x="0px" y="0px" viewBox="0 0 91 91" enable-background="new 0 0 91 91" xml:space="preserve"><g><g><path d="M58.308,37.121c-4.098-1.139-8.357-1.729-12.666-1.729c-0.002,0-0.002,0-0.002,0c-0.002,0-0.002,0-0.002,0    c-11.502,0-22.625,4.191-31.324,11.799c-0.656,0.574-0.941,1.416-0.834,2.221c0.063,0.477,0.258,0.938,0.598,1.326    c0.916,1.043,2.5,1.15,3.545,0.236c7.787-6.807,17.736-10.557,28.018-10.557c3.854,0,7.662,0.527,11.328,1.547    c6.109,1.695,11.82,4.756,16.688,9.012c0.479,0.418,1.066,0.621,1.654,0.621c0.002,0,0.002,0,0.002,0    c0.699,0,1.396-0.291,1.893-0.857c0.914-1.045,0.807-2.633-0.236-3.545C71.526,42.438,65.14,39.018,58.308,37.121z"></path><path d="M45.638,16.049c-16.166,0-31.805,5.893-44.037,16.59c-1.047,0.912-1.152,2.5-0.238,3.545s2.504,1.15,3.545,0.236    c11.316-9.896,25.781-15.346,40.73-15.346c14.951,0,29.418,5.451,40.734,15.35c0.477,0.416,1.066,0.621,1.652,0.621    c0.701,0,1.396-0.291,1.893-0.859c0.914-1.043,0.809-2.631-0.236-3.543C77.446,21.941,61.806,16.049,45.638,16.049z"></path><path d="M53.54,72.35c-0.033-0.025-0.064-0.055-0.096-0.078c-0.084-0.061-0.174-0.113-0.26-0.172    c-2.229-1.551-4.855-2.402-7.547-2.402c-2.588,0-5.117,0.793-7.295,2.24c-0.504,0.332-0.992,0.688-1.453,1.09    c-1.047,0.912-1.154,2.498-0.242,3.545c0.229,0.262,0.498,0.465,0.793,0.607c0.881,0.43,1.973,0.32,2.756-0.367    c0.404-0.354,0.91-0.73,1.516-1.068c1.029-0.57,2.342-1.02,3.93-1.02c1.895,0,3.395,0.639,4.486,1.359    c0.363,0.24,0.68,0.49,0.951,0.729c0.479,0.416,1.068,0.623,1.656,0.623c0.699,0,1.393-0.291,1.891-0.855    c0.229-0.262,0.395-0.559,0.496-0.871c0.012-0.029,0.014-0.063,0.021-0.094c0.037-0.125,0.07-0.25,0.086-0.377    c0.02-0.156,0.023-0.314,0.014-0.473c0-0.002,0-0.006,0-0.008c-0.041-0.643-0.328-1.27-0.852-1.729    C54.116,72.789,53.831,72.564,53.54,72.35z"></path><path d="M65.093,60.777c-0.158-0.139-0.322-0.27-0.482-0.404c-0.182-0.152-0.361-0.309-0.547-0.455    c-5.236-4.184-11.729-6.471-18.424-6.471c-3.125,0-6.207,0.498-9.139,1.457c-0.072,0.023-0.143,0.051-0.213,0.074    c-0.346,0.115-0.689,0.234-1.029,0.361c-0.234,0.088-0.463,0.186-0.695,0.279c-0.176,0.072-0.354,0.139-0.529,0.215    c-0.207,0.088-0.408,0.186-0.613,0.277c-0.197,0.09-0.396,0.176-0.592,0.27c-0.082,0.041-0.164,0.086-0.246,0.127    c-2.289,1.131-4.443,2.559-6.398,4.268c-1.045,0.914-1.152,2.5-0.238,3.545c0,0.002,0.002,0.004,0.004,0.004v0.002    c0.051,0.057,0.111,0.102,0.166,0.154c0.066,0.063,0.129,0.133,0.201,0.188c0.934,0.713,2.266,0.693,3.178-0.107    c1.051-0.92,2.174-1.732,3.348-2.453c0.08-0.049,0.154-0.107,0.234-0.154c0.014-0.01,0.029-0.016,0.045-0.025    c1.881-1.119,3.895-1.982,5.99-2.564c2.111-0.586,4.305-0.891,6.527-0.891c5.926,0,11.662,2.164,16.146,6.09    c0.477,0.416,1.066,0.621,1.654,0.621c0.699,0,1.395-0.289,1.891-0.857c0.914-1.045,0.809-2.633-0.236-3.547L65.093,60.777z"></path></g></g></svg>
